<svg width="24" height="24" viewBox="0 0 24 24" fill="none" xmlns="http://www.w3.org/2000/svg">
<g clip-path="url(#clip0_22_29)">
<path d="M18.5871 8.02992H16.464C16.2187 8.02992 15.9833 7.92519 15.8181 7.74065L14.9568 6.77307C14.8266 6.62843 14.6464 6.54364 14.4511 6.54364C14.2558 6.54364 14.0755 6.62843 13.9453 6.77307L13.2043 7.60598C12.9639 7.87531 12.6134 8.03491 12.2529 8.03491H0.63092C0.300438 8.96758 0.0851241 9.9601 0 10.9925H10.971C11.1663 10.9925 11.3465 10.9127 11.4817 10.7731L12.5032 9.71072C12.6284 9.57606 12.8087 9.50125 12.9889 9.50125H13.029C13.2243 9.50125 13.4045 9.58603 13.5347 9.73067L14.396 10.6983C14.5612 10.8828 14.7966 10.9875 15.0419 10.9875H23.995C23.9099 9.9601 23.6946 8.96259 23.3641 8.02494L18.5871 8.02992Z" fill="black"/>
<path d="M6.63966 17.217C6.83495 17.217 7.01521 17.1372 7.15041 16.9975L8.1719 15.9352C8.30209 15.8005 8.47734 15.7257 8.66261 15.7257H8.70267C8.89796 15.7257 9.08323 15.8105 9.20841 15.9501L10.0697 16.9177C10.2349 17.1023 10.4703 17.207 10.7156 17.207H22.8533C23.309 16.2693 23.6395 15.2669 23.8397 14.2145H12.1878C11.9424 14.2145 11.7071 14.1097 11.5418 13.9252L10.6806 12.9676C10.5504 12.823 10.3701 12.7432 10.1748 12.7432C9.97953 12.7432 9.79426 12.828 9.66908 12.9676L8.928 13.8005C8.68765 14.0748 8.33714 14.2294 7.97161 14.2294H0.165222C0.365514 15.2818 0.695996 16.2843 1.15166 17.222L6.63966 17.217Z" fill="black"/>
<path d="M15.2473 4.79302C15.4425 4.79302 15.6228 4.71322 15.758 4.57357L16.7795 3.51122C16.9047 3.37656 17.0849 3.30175 17.2702 3.30175H17.3103C17.5055 3.30175 17.6858 3.38653 17.816 3.53117L18.6773 4.50374C18.8425 4.68828 19.0778 4.79302 19.3232 4.79302H21.6316C19.4334 1.8803 15.9383 0 12.0025 0C8.06678 0 4.56668 1.8803 2.36847 4.79302H15.2473Z" fill="black"/>
<path d="M10.6155 20.1845H7.46086C7.2155 20.1845 6.98016 20.0798 6.81492 19.8953L5.95366 18.9277C5.82347 18.783 5.64321 18.7032 5.44793 18.7032C5.25264 18.7032 5.06737 18.788 4.94219 18.9277L4.20111 19.7606C3.96076 20.0349 3.61025 20.1895 3.24471 20.1895H3.19464C5.39285 22.5337 8.52241 24.005 12.0025 24.005C15.4826 24.005 18.6071 22.5337 20.8103 20.1895L10.6155 20.1845Z" fill="black"/>
</g>
<defs>
<clipPath id="clip0_22_29">
<rect width="24" height="24" fill="white"/>
</clipPath>
</defs>
</svg>
