<svg width="24" height="24" viewBox="0 0 24 24" fill="none" xmlns="http://www.w3.org/2000/svg">
<g clip-path="url(#clip0_7_39)">
<path d="M0.910706 7.56698V16.4331C0.910706 16.9992 1.27293 17.5226 1.8596 17.8047L11.0529 22.2387C11.6396 22.5209 12.3618 22.5209 12.9485 22.2387L22.1419 17.8047C22.7285 17.5226 23.0907 16.9992 23.0907 16.4331V7.56698C23.0907 7.00089 22.7285 6.4775 22.1419 6.19539L12.9485 1.76139C12.3618 1.47928 11.6396 1.47928 11.0529 1.76139L1.85737 6.19539C1.27071 6.4775 0.910706 7.00089 0.910706 7.56698Z" fill="#213147"/>
<path d="M14.0066 13.7196L12.6955 16.7226C12.6599 16.8062 12.6599 16.8972 12.6955 16.9806L14.951 22.1478L17.5599 20.8895L14.4288 13.7196C14.3577 13.5545 14.0777 13.5545 14.0066 13.7196Z" fill="#12AAFF"/>
<path d="M16.6353 8.66942C16.5642 8.50424 16.2842 8.50424 16.2131 8.66942L14.9019 11.6724C14.8664 11.756 14.8664 11.8469 14.9019 11.9304L18.5974 20.3901L21.2064 19.1318L16.6353 8.66942Z" fill="#12AAFF"/>
<path d="M12 2.09361C12.0644 2.09361 12.1289 2.10846 12.1867 2.13444L22.1355 6.9322C22.2511 6.98788 22.3222 7.09183 22.3222 7.20133V16.7951C22.3222 16.9064 22.2511 17.0085 22.1355 17.0641L12.1867 21.8619C12.1311 21.8898 12.0644 21.9027 12 21.9027C11.9356 21.9027 11.8711 21.8879 11.8133 21.8619L1.86444 17.0679C1.7489 17.0123 1.67778 16.9083 1.67778 16.7988V7.2032C1.67778 7.09184 1.7489 6.98975 1.86444 6.93407L11.8133 2.1363C11.8711 2.10846 11.9356 2.09361 12 2.09361ZM12 0.692322C11.6467 0.692322 11.2911 0.768418 10.9733 0.922467L1.02667 5.71839C0.391111 6.02463 0 6.5907 0 7.2032V16.7968C0 17.4093 0.391111 17.9754 1.02667 18.2817L10.9756 23.0795C11.2933 23.2317 11.6467 23.3095 12.0022 23.3095C12.3556 23.3095 12.7111 23.2335 13.0289 23.0795L22.9778 18.2817C23.6133 17.9754 24.0045 17.4093 24.0045 16.7968V7.2032C24.0045 6.5907 23.6133 6.02463 22.9778 5.71839L13.0267 0.922467C12.7089 0.768418 12.3533 0.692322 12 0.692322Z" fill="#9DCCED"/>
<path d="M5.41992 20.4012L6.33549 18.3076L8.17771 19.5864L6.45549 20.9004L5.41992 20.4012Z" fill="#213147"/>
<path d="M11.1619 6.51645H8.6397C8.45082 6.51645 8.28193 6.61482 8.21749 6.7633L2.81082 19.1428L5.41971 20.4012L11.373 6.76887C11.4286 6.64636 11.3197 6.51645 11.1619 6.51645Z" fill="white"/>
<path d="M15.5756 6.51645H13.0534C12.8645 6.51645 12.6956 6.61482 12.6312 6.7633L6.45786 20.8986L9.06674 22.1569L15.7867 6.76887C15.8401 6.64636 15.7312 6.51645 15.5756 6.51645Z" fill="white"/>
</g>
<defs>
<clipPath id="clip0_7_39">
<rect width="24" height="24" fill="white"/>
</clipPath>
</defs>
</svg>
