<svg width="24" height="24" viewBox="0 0 24 24" fill="none" xmlns="http://www.w3.org/2000/svg">
<g clip-path="url(#clip0_1_7)">
<circle cx="12" cy="12" r="12" fill="#EDE4F9"/>
<path d="M9.248 17C9.168 17 9.128 16.96 9.128 16.88V8.72C9.128 8.64 9.168 8.6 9.248 8.6H12.08C12.872 8.6 13.5 8.808 13.964 9.224C14.436 9.64 14.672 10.204 14.672 10.916V14.684C14.672 15.396 14.436 15.96 13.964 16.376C13.5 16.792 12.872 17 12.08 17H9.248ZM9.98 16.208C9.98 16.24 9.996 16.256 10.028 16.256H12.116C12.636 16.256 13.048 16.104 13.352 15.8C13.664 15.496 13.82 15.088 13.82 14.576V11.036C13.82 10.516 13.668 10.104 13.364 9.8C13.06 9.496 12.644 9.344 12.116 9.344H10.028C9.996 9.344 9.98 9.36 9.98 9.392V16.208Z" fill="black"/>
</g>
<defs>
<clipPath id="clip0_1_7">
<rect width="24" height="24" fill="white"/>
</clipPath>
</defs>
</svg>
