<svg width="24" height="24" viewBox="0 0 24 24" fill="none" xmlns="http://www.w3.org/2000/svg">
<g clip-path="url(#clip0_1_5)">
<circle cx="12" cy="12" r="12" fill="#1098FC"/>
<path d="M11.684 17.096C11.124 17.096 10.632 16.988 10.208 16.772C9.784 16.548 9.452 16.236 9.212 15.836C8.98 15.436 8.864 14.976 8.864 14.456V11.144C8.864 10.624 8.98 10.164 9.212 9.764C9.452 9.364 9.784 9.056 10.208 8.84C10.632 8.616 11.124 8.504 11.684 8.504C12.236 8.504 12.724 8.612 13.148 8.828C13.58 9.044 13.912 9.348 14.144 9.74C14.376 10.124 14.492 10.56 14.492 11.048V11.204C14.492 11.284 14.452 11.324 14.372 11.324H13.76C13.68 11.324 13.64 11.284 13.64 11.204V11.06C13.64 10.524 13.46 10.088 13.1 9.752C12.748 9.416 12.276 9.248 11.684 9.248C11.092 9.248 10.616 9.42 10.256 9.764C9.896 10.108 9.716 10.56 9.716 11.12V14.48C9.716 15.04 9.9 15.492 10.268 15.836C10.636 16.18 11.12 16.352 11.72 16.352C12.304 16.352 12.768 16.192 13.112 15.872C13.464 15.552 13.64 15.124 13.64 14.588V13.496C13.64 13.464 13.624 13.448 13.592 13.448H11.828C11.748 13.448 11.708 13.408 11.708 13.328V12.824C11.708 12.744 11.748 12.704 11.828 12.704H14.372C14.452 12.704 14.492 12.744 14.492 12.824V14.372C14.492 15.228 14.236 15.896 13.724 16.376C13.22 16.856 12.54 17.096 11.684 17.096Z" fill="black"/>
</g>
<defs>
<clipPath id="clip0_1_5">
<rect width="24" height="24" fill="white"/>
</clipPath>
</defs>
</svg>
