<svg width="24" height="24" viewBox="0 0 24 24" fill="none" xmlns="http://www.w3.org/2000/svg">
<g clip-path="url(#clip0_1_7)">
<circle cx="12" cy="12" r="12" fill="#F5B497"/>
<path d="M13.904 8.72C13.904 8.64 13.944 8.6 14.024 8.6H14.636C14.716 8.6 14.756 8.64 14.756 8.72V16.88C14.756 16.96 14.716 17 14.636 17H14.024C13.944 17 13.904 16.96 13.904 16.88V13.196C13.904 13.164 13.888 13.148 13.856 13.148H10.028C9.996 13.148 9.98 13.164 9.98 13.196V16.88C9.98 16.96 9.94 17 9.86 17H9.248C9.168 17 9.128 16.96 9.128 16.88V8.72C9.128 8.64 9.168 8.6 9.248 8.6H9.86C9.94 8.6 9.98 8.64 9.98 8.72V12.356C9.98 12.388 9.996 12.404 10.028 12.404H13.856C13.888 12.404 13.904 12.388 13.904 12.356V8.72Z" fill="black"/>
</g>
<defs>
<clipPath id="clip0_1_7">
<rect width="24" height="24" fill="white"/>
</clipPath>
</defs>
</svg>
