<svg width="24" height="24" viewBox="0 0 24 24" fill="none" xmlns="http://www.w3.org/2000/svg">
<g clip-path="url(#clip0_2_2)">
<circle cx="12" cy="12" r="12" fill="#D3CEDA"/>
<path d="M14.576 8.684C14.616 8.628 14.664 8.6 14.72 8.6H15.344C15.424 8.6 15.464 8.64 15.464 8.72V16.88C15.464 16.96 15.424 17 15.344 17H14.732C14.652 17 14.612 16.96 14.612 16.88V10.208C14.612 10.184 14.604 10.168 14.588 10.16C14.572 10.152 14.56 10.16 14.552 10.184L12.596 13.184C12.556 13.24 12.508 13.268 12.452 13.268H12.14C12.084 13.268 12.036 13.244 11.996 13.196L10.04 10.22C10.032 10.196 10.02 10.188 10.004 10.196C9.988 10.204 9.98 10.22 9.98 10.244V16.88C9.98 16.96 9.94 17 9.86 17H9.248C9.168 17 9.128 16.96 9.128 16.88V8.72C9.128 8.64 9.168 8.6 9.248 8.6H9.872C9.936 8.6 9.984 8.624 10.016 8.672L12.272 12.092C12.28 12.1 12.292 12.104 12.308 12.104C12.324 12.104 12.336 12.1 12.344 12.092L14.576 8.684Z" fill="black"/>
</g>
<defs>
<clipPath id="clip0_2_2">
<rect width="24" height="24" fill="white"/>
</clipPath>
</defs>
</svg>
