<svg width="24" height="24" viewBox="0 0 24 24" fill="none" xmlns="http://www.w3.org/2000/svg">
<g clip-path="url(#clip0_1_7)">
<circle cx="12" cy="12" r="12" fill="#CFB5F0"/>
<path d="M11.552 17.096C10.648 17.096 9.932 16.892 9.404 16.484C8.884 16.076 8.624 15.532 8.624 14.852V14.48C8.624 14.4 8.664 14.36 8.744 14.36H9.332C9.412 14.36 9.452 14.4 9.452 14.48V14.804C9.452 15.268 9.644 15.644 10.028 15.932C10.412 16.212 10.944 16.352 11.624 16.352C12.24 16.352 12.708 16.224 13.028 15.968C13.348 15.704 13.508 15.356 13.508 14.924C13.508 14.644 13.432 14.404 13.28 14.204C13.136 14.004 12.908 13.816 12.596 13.64C12.292 13.464 11.86 13.26 11.3 13.028C10.7 12.788 10.232 12.58 9.896 12.404C9.568 12.22 9.3 11.988 9.092 11.708C8.892 11.42 8.792 11.06 8.792 10.628C8.792 9.956 9.024 9.436 9.488 9.068C9.96 8.692 10.604 8.504 11.42 8.504C12.308 8.504 13.008 8.712 13.52 9.128C14.032 9.544 14.288 10.096 14.288 10.784V11.048C14.288 11.128 14.248 11.168 14.168 11.168H13.568C13.488 11.168 13.448 11.128 13.448 11.048V10.832C13.448 10.368 13.264 9.988 12.896 9.692C12.536 9.396 12.032 9.248 11.384 9.248C10.816 9.248 10.38 9.364 10.076 9.596C9.772 9.828 9.62 10.164 9.62 10.604C9.62 10.892 9.692 11.132 9.836 11.324C9.988 11.508 10.2 11.672 10.472 11.816C10.752 11.952 11.18 12.132 11.756 12.356C12.34 12.596 12.808 12.82 13.16 13.028C13.52 13.236 13.808 13.492 14.024 13.796C14.248 14.092 14.36 14.456 14.36 14.888C14.36 15.56 14.112 16.096 13.616 16.496C13.12 16.896 12.432 17.096 11.552 17.096Z" fill="black"/>
</g>
<defs>
<clipPath id="clip0_1_7">
<rect width="24" height="24" fill="white"/>
</clipPath>
</defs>
</svg>
