<svg width="24" height="24" viewBox="0 0 24 24" fill="none" xmlns="http://www.w3.org/2000/svg">
<mask id="mask0_6_20" style="mask-type:luminance" maskUnits="userSpaceOnUse" x="0" y="4" width="24" height="16">
<path d="M24 4H0V20H24V4Z" fill="white"/>
</mask>
<g mask="url(#mask0_6_20)">
<path d="M0 18.3037C0 18.4813 0.15033 18.6434 0.388733 18.723L4.26562 19.9998V16.5396L0 15.1333V18.3037Z" fill="black"/>
<path d="M5.67188 16.5397V19.9999L9.50208 18.7231C9.7403 18.6436 9.89062 18.4816 9.89062 18.3038V17.1874H14.1094V18.3038C14.1094 18.4816 14.2597 18.6436 14.4981 18.7231L18.3281 19.9999V16.5397L14.1094 15.1334V16.2499H9.89062V15.1333L5.67188 16.5397Z" fill="black"/>
<path d="M5.28369 12.5493C5.08557 12.4833 4.85266 12.4833 4.65472 12.5493L0.0834961 14.1127L4.96911 15.7256L9.80785 14.1127L7.7547 13.4031L9.72546 11.007L11.2972 11.5623V8.0708L7.07848 6.66455V9.83496C7.07848 10.0126 7.22881 10.1747 7.46722 10.2543L8.46662 10.5875L6.50592 12.9717L5.28369 12.5493Z" fill="black"/>
<path d="M19.7343 19.9999L23.6115 18.7231C23.8497 18.6436 24 18.4816 24 18.3038V15.1333L19.7343 16.5397V19.9999Z" fill="black"/>
<path d="M16.9218 9.83508V6.66455L12.7031 8.07092V11.5624L14.2751 11.0072L16.2456 13.4033L14.1925 14.1128L19.0312 15.7257L23.9169 14.1128L19.3458 12.5493C19.1476 12.4833 18.9148 12.4833 18.7168 12.5493L17.4945 12.9718L15.5337 10.5876L16.5333 10.2544C16.7715 10.1748 16.9218 10.0127 16.9218 9.83508Z" fill="black"/>
<path d="M11.686 4.04955L7.16162 5.64415L12.0004 7.25706L16.8392 5.64415L12.3149 4.04942C12.1168 3.98351 11.8839 3.98351 11.686 4.04955Z" fill="black"/>
</g>
</svg>
